<svg width="246" height="59" viewBox="0 0 246 59" fill="none" xmlns="http://www.w3.org/2000/svg">
<rect x="146" width="100" height="59" rx="5" fill="#00C6CF"/>
<path d="M161.979 23.5234C163.925 21.1875 166.371 20.0195 169.316 20.0195C175.275 20.0195 178.296 23.4811 178.381 30.4043V48H171.043V30.6074C171.043 29.0332 170.704 27.8737 170.027 27.1289C169.35 26.3672 168.225 25.9863 166.65 25.9863C164.501 25.9863 162.943 26.8158 161.979 28.4746V48H154.641V9H161.979V23.5234ZM200.889 45.207C199.078 47.4076 196.573 48.5078 193.374 48.5078C190.428 48.5078 188.177 47.6615 186.62 45.9688C185.079 44.276 184.292 41.7962 184.258 38.5293V20.5273H191.596V38.2754C191.596 41.1361 192.9 42.5664 195.506 42.5664C197.995 42.5664 199.704 41.7031 200.635 39.9766V20.5273H207.999V48H201.092L200.889 45.207ZM238.81 34.5176C238.81 38.9186 237.87 42.3548 235.991 44.8262C234.112 47.2806 231.489 48.5078 228.12 48.5078C225.141 48.5078 222.763 47.3652 220.985 45.0801L220.655 48H214.054V9H221.392V22.9902C223.084 21.0098 225.31 20.0195 228.069 20.0195C231.421 20.0195 234.045 21.2552 235.94 23.7266C237.853 26.181 238.81 29.6426 238.81 34.1113V34.5176ZM231.472 33.9844C231.472 31.2083 231.032 29.1855 230.151 27.916C229.271 26.6296 227.959 25.9863 226.216 25.9863C223.88 25.9863 222.272 26.9427 221.392 28.8555V39.6973C222.289 41.627 223.914 42.5918 226.267 42.5918C228.636 42.5918 230.194 41.4238 230.938 39.0879C231.294 37.9707 231.472 36.2695 231.472 33.9844Z" fill="#212121"/>
<path d="M11.2734 9.1875L21.5 38.0625L31.6719 9.1875H42.4453V49H34.2148V38.1172L35.0352 19.332L24.2891 49H18.6562L7.9375 19.3594L8.75781 38.1172V49H0.554688V9.1875H11.2734ZM88.56 39.3477L94.0561 19.4141H102.314L92.3334 49H84.7866L74.8061 19.4141H83.0639L88.56 39.3477ZM110.794 49H102.864V19.4141H110.794V49ZM102.399 11.7578C102.399 10.5729 102.791 9.59766 103.575 8.83203C104.377 8.06641 105.462 7.68359 106.829 7.68359C108.178 7.68359 109.253 8.06641 110.055 8.83203C110.858 9.59766 111.259 10.5729 111.259 11.7578C111.259 12.9609 110.848 13.9453 110.028 14.7109C109.226 15.4766 108.16 15.8594 106.829 15.8594C105.498 15.8594 104.423 15.4766 103.602 14.7109C102.8 13.9453 102.399 12.9609 102.399 11.7578ZM127.586 49.5469C123.248 49.5469 119.711 48.2161 116.977 45.5547C114.261 42.8932 112.903 39.3477 112.903 34.918V34.1523C112.903 31.181 113.477 28.5286 114.625 26.1953C115.774 23.8438 117.396 22.0391 119.492 20.7812C121.607 19.5052 124.013 18.8672 126.711 18.8672C130.758 18.8672 133.939 20.1432 136.254 22.6953C138.587 25.2474 139.754 28.8659 139.754 33.5508V36.7773H120.914C121.169 38.7096 121.935 40.2591 123.211 41.4258C124.505 42.5924 126.137 43.1758 128.106 43.1758C131.15 43.1758 133.529 42.0729 135.242 39.8672L139.125 44.2148C137.94 45.8919 136.336 47.2044 134.313 48.1523C132.289 49.082 130.047 49.5469 127.586 49.5469ZM126.684 25.2656C125.116 25.2656 123.84 25.7943 122.856 26.8516C121.889 27.9089 121.27 29.4219 120.996 31.3906H131.988V30.7617C131.952 29.0117 131.478 27.6628 130.567 26.7148C129.655 25.7487 128.361 25.2656 126.684 25.2656Z" fill="white"/>
<g clip-path="url(#clip0)">
<path d="M74.8792 34.3755C74.8791 26.4007 68.4143 19.9359 60.4395 19.9359C52.4647 19.936 45.9999 26.4009 46 34.3756C46 38.2053 47.5214 41.878 50.2293 44.5859C52.9344 47.2983 56.6091 48.8203 60.4397 48.8152C68.4145 48.8151 74.8793 42.3502 74.8792 34.3755ZM65.9009 28.0632C67.2078 27.3051 68.8817 27.75 69.6398 29.0568C70.3979 30.3637 69.953 32.0376 68.6462 32.7957C67.3394 33.5538 65.6655 33.109 64.9074 31.8023C64.1511 30.4952 64.5956 28.8225 65.9009 28.0632ZM54.9882 40.6812C53.6814 41.4393 52.0075 40.9945 51.2493 39.6877C50.4912 38.381 50.936 36.7069 52.2427 35.9488C52.2428 35.9488 52.2428 35.9487 52.2429 35.9487C53.5497 35.1906 55.2237 35.6355 55.9818 36.9423C56.7399 38.2492 56.295 39.9231 54.9882 40.6812ZM55.9817 31.809C55.2236 33.1157 53.5497 33.5605 52.2429 32.8024C50.9375 32.0431 50.4931 30.3705 51.2493 29.0634C52.0075 27.7566 53.6815 27.3118 54.9883 28.07C56.2952 28.8281 56.7399 30.5021 55.9817 31.809ZM60.4397 44.9999C58.9289 44.9999 57.7041 43.7752 57.7041 42.2643C57.7041 40.7535 58.9288 39.5288 60.4397 39.5288C61.9506 39.5288 63.1753 40.7535 63.1753 42.2643C63.1753 43.7752 61.9506 44.9999 60.4397 44.9999ZM58.3963 34.3755C58.3963 33.247 59.3112 32.3321 60.4397 32.3321C61.5682 32.3321 62.4831 33.247 62.4831 34.3755C62.4831 35.5041 61.5682 36.419 60.4397 36.419C59.3112 36.419 58.3963 35.5041 58.3963 34.3755ZM60.4397 29.2223C58.9289 29.2223 57.7041 27.9975 57.7041 26.4868C57.7041 24.976 58.9288 23.7512 60.4397 23.7512C61.9506 23.7512 63.1753 24.9759 63.1753 26.4868C63.1753 27.9976 61.9506 29.2223 60.4397 29.2223ZM69.6397 39.6978C68.8816 41.0045 67.2077 41.4493 65.9009 40.6912C64.5932 39.9341 64.1456 38.261 64.9007 36.9522H64.9074C65.6655 35.6453 67.3395 35.2006 68.6463 35.9588C69.9532 36.7169 70.3979 38.3909 69.6397 39.6978Z" fill="white"/>
<path d="M80.6717 48.4177C80.4058 47.8916 80.0582 47.4109 79.6417 46.9937C79.1593 46.5041 78.5999 46.0968 77.9858 45.7881C76.4723 45.0297 74.462 44.7946 72.1371 45.9471C71.4593 46.2771 70.7561 46.5518 70.0341 46.7684C68.0732 48.2905 65.7775 49.3225 63.3376 49.7789C65.5399 50.1101 67.9509 49.8716 70.0639 49.6696C71.1313 49.5434 72.2048 49.476 73.2797 49.4676C75.6443 49.5272 75.5152 52.031 75.492 52.3092C75.4409 52.6714 75.6931 53.0065 76.0553 53.0575C76.2044 53.0786 76.3561 53.0482 76.4856 52.9715L80.6022 50.587C80.7148 50.522 80.8058 50.4252 80.8638 50.3088C81.0989 49.8352 81.0261 49.1397 80.6717 48.4177Z" fill="white"/>
</g>
<defs>
<clipPath id="clip0">
<rect width="35" height="35" fill="white" transform="translate(46 19)"/>
</clipPath>
</defs>
</svg>
